<svg width="26" height="25" viewBox="0 0 26 25" fill="none" xmlns="http://www.w3.org/2000/svg">
<path d="M22.6777 12.5C22.6777 18.0228 18.2006 22.5 12.6777 22.5C7.15489 22.5 2.67773 18.0228 2.67773 12.5C2.67773 6.97715 7.15489 2.5 12.6777 2.5C18.2006 2.5 22.6777 6.97715 22.6777 12.5Z" fill="#FBBB00"/>
<path d="M17.142 9.28571L12.5237 16.2362C12.2738 16.6124 11.7418 16.6651 11.4229 16.3452L8.21345 13.125M22.6777 12.5C22.6777 18.0228 18.2006 22.5 12.6777 22.5C7.15489 22.5 2.67773 18.0228 2.67773 12.5C2.67773 6.97715 7.15489 2.5 12.6777 2.5C18.2006 2.5 22.6777 6.97715 22.6777 12.5Z" stroke="black" stroke-width="1.4" stroke-linecap="round" stroke-linejoin="round"/>
</svg>
