<svg width="190" height="190" viewBox="0 0 190 190" fill="none" xmlns="http://www.w3.org/2000/svg">
<circle cx="95" cy="95" r="93.5" fill="#FBBB00" stroke="black" stroke-width="3"/>
<g clip-path="url(#clip0_438_2968)">
<path d="M117.781 112.962L125.25 120.432C120.624 128.576 109.203 135.082 98.5044 136.672V93.6859H112.962V84.0478H98.5044V78.3613C104.095 76.3373 108.143 71.0364 108.143 64.7716C108.143 56.8202 101.637 50.3145 93.6854 50.3145C85.734 50.3145 79.2283 56.8202 79.2283 64.7716C79.2283 71.0364 83.2763 76.3373 88.8663 78.3613V84.0478H74.4092V93.6859H88.8663V136.672C78.1681 135.082 66.7469 128.576 62.1206 120.432L69.5902 112.962L50.314 98.5049V112.962C50.314 131.66 74.0237 146.695 93.6854 146.695C113.347 146.695 137.057 131.66 137.057 112.962V98.5049L117.781 112.962ZM93.6854 59.9525C96.3359 59.9525 98.5044 62.1211 98.5044 64.7716C98.5044 67.4221 96.3359 69.5906 93.6854 69.5906C91.0349 69.5906 88.8663 67.4221 88.8663 64.7716C88.8663 62.1211 91.0349 59.9525 93.6854 59.9525Z" fill="black"/>
</g>
<defs>
<clipPath id="clip0_438_2968">
<rect width="115.657" height="115.657" fill="white" transform="translate(39.7998 34.543)"/>
</clipPath>
</defs>
</svg>
