<svg width="35" height="35" viewBox="0 0 35 35" fill="none" xmlns="http://www.w3.org/2000/svg">
<circle cx="17.5" cy="17.5" r="17" fill="white" stroke="black"/>
<g clip-path="url(#clip0_127_34970)">
<path d="M21.8333 20.9167L23.2542 22.3375C22.3742 23.8867 20.2017 25.1242 18.1667 25.4267V17.25H20.9167V15.4167H18.1667V14.335C19.23 13.95 20 12.9417 20 11.75C20 10.2375 18.7625 9 17.25 9C15.7375 9 14.5 10.2375 14.5 11.75C14.5 12.9417 15.27 13.95 16.3333 14.335V15.4167H13.5833V17.25H16.3333V25.4267C14.2983 25.1242 12.1258 23.8867 11.2458 22.3375L12.6667 20.9167L9 18.1667V20.9167C9 24.4733 13.51 27.3333 17.25 27.3333C20.99 27.3333 25.5 24.4733 25.5 20.9167V18.1667L21.8333 20.9167ZM17.25 10.8333C17.7542 10.8333 18.1667 11.2458 18.1667 11.75C18.1667 12.2542 17.7542 12.6667 17.25 12.6667C16.7458 12.6667 16.3333 12.2542 16.3333 11.75C16.3333 11.2458 16.7458 10.8333 17.25 10.8333Z" fill="black"/>
</g>
<defs>
<clipPath id="clip0_127_34970">
<rect width="22" height="22" fill="white" transform="translate(7 6)"/>
</clipPath>
</defs>
</svg>
