<svg width="12" height="11" viewBox="0 0 12 11" fill="none" xmlns="http://www.w3.org/2000/svg">
<path fill-rule="evenodd" clip-rule="evenodd" d="M4.77945 1.1692C5.31468 0.217689 6.68464 0.217688 7.21986 1.1692L11.1261 8.11358C11.651 9.04682 10.9766 10.1999 9.90587 10.1999H2.09344C1.02269 10.1999 0.348288 9.04683 0.873239 8.11358L4.77945 1.1692ZM6.6996 8.10002C6.6996 8.48662 6.3862 8.80002 5.9996 8.80002C5.613 8.80002 5.2996 8.48662 5.2996 8.10002C5.2996 7.71342 5.613 7.40002 5.9996 7.40002C6.3862 7.40002 6.6996 7.71342 6.6996 8.10002ZM5.9996 2.50002C5.613 2.50002 5.2996 2.81343 5.2996 3.20002V5.30002C5.2996 5.68662 5.613 6.00002 5.9996 6.00002C6.3862 6.00002 6.6996 5.68662 6.6996 5.30002V3.20002C6.6996 2.81343 6.3862 2.50002 5.9996 2.50002Z" fill="#111827"/>
</svg>
